{
  "accessors": [
    {
      "bufferView": 2,
      "componentType": 5126,
      "count": 24578,
      "max": [
        6.9581747055053711,
        4.3797898292541504,
        4.3467626571655273
      ],
      "min": [
        -5.1892714500427246,
        -6.7323546409606934,
        -3.719515323638916
      ],
      "type": "VEC3"
    },
    {
      "bufferView": 2,
      "byteOffset": 294936,
      "componentType": 5126,
      "count": 24578,
      "max": [
        0.99985253810882568,
        0.99996280670166016,
        0.9999845027923584
      ],
      "min": [
        -0.99952971935272217,
        -0.99943530559539795,
        -0.99999761581420898
      ],
      "type": "VEC3"
    },
    {
      "bufferView": 0,
      "componentType": 5125,
      "count": 147456,
      "max": [
        24577
      ],
      "min": [
        0
      ],
      "type": "SCALAR"
    },
    {
      "bufferView": 2,
      "byteOffset": 589872,
      "componentType": 5126,
      "count": 559,
      "max": [
        1.0000002384185791,
        1,
        1
      ],
      "min": [
        -0.99999982118606567,
        -1.0000003576278687,
        -1
      ],
      "type": "VEC3"
    },
    {
      "bufferView": 2,
      "byteOffset": 596580,
      "componentType": 5126,
      "count": 559,
      "max": [
        1,
        1,
        1
      ],
      "min": [
        -1,
        -1,
        -1
      ],
      "type": "VEC3"
    },
    {
      "bufferView": 1,
      "componentType": 5126,
      "count": 559,
      "max": [
        1.0000002384185791,
        1
      ],
      "min": [
        0,
        0
      ],
      "type": "VEC2"
    },
    {
      "bufferView": 0,
      "byteOffset": 589824,
      "componentType": 5125,
      "count": 2880,
      "max": [
        558
      ],
      "min": [
        0
      ],
      "type": "SCALAR"
    },
    {
      "bufferView": 3,
      "componentType": 5126,
      "count": 2,
      "max": [
        0.041666667908430099
      ],
      "min": [
        0
      ],
      "type": "SCALAR"
    },
    {
      "bufferView": 4,
      "componentType": 5126,
      "count": 2,
      "max": [
        -900,
        -299.40338134765625,
        300
      ],
      "min": [
        -900,
        -300,
        300
      ],
      "type": "VEC3"
    },
    {
      "bufferView": 3,
      "byteOffset": 8,
      "componentType": 5126,
      "count": 2,
      "max": [
        0.041666667908430099
      ],
      "min": [
        0
      ],
      "type": "SCALAR"
    },
    {
      "bufferView": 4,
      "byteOffset": 24,
      "componentType": 5126,
      "count": 2,
      "max": [
        -900,
        -299.40338134765625,
        300
      ],
      "min": [
        -900,
        -300,
        300
      ],
      "type": "VEC3"
    },
    {
      "bufferView": 3,
      "byteOffset": 16,
      "componentType": 5126,
      "count": 81,
      "max": [
        1.6666666269302368
      ],
      "min": [
        0
      ],
      "type": "SCALAR"
    },
    {
      "bufferView": 4,
      "byteOffset": 48,
      "componentType": 5126,
      "count": 81,
      "max": [
        -900,
        400,
        300
      ],
      "min": [
        -900,
        -300,
        300
      ],
      "type": "VEC3"
    }
  ],
  "animations": [
    {
      "channels": [
        {
          "sampler": 0,
          "target": {
            "node": 7,
            "path": "translation"
          }
        }
      ],
      "name": "Sphere|CameraAction",
      "samplers": [
        {
          "input": 7,
          "interpolation": "LINEAR",
          "output": 8
        }
      ]
    },
    {
      "channels": [
        {
          "sampler": 0,
          "target": {
            "node": 7,
            "path": "translation"
          }
        }
      ],
      "name": "Sphere|SceneAction",
      "samplers": [
        {
          "input": 9,
          "interpolation": "LINEAR",
          "output": 10
        }
      ]
    },
    {
      "channels": [
        {
          "sampler": 0,
          "target": {
            "node": 7,
            "path": "translation"
          }
        }
      ],
      "name": "Sphere|SphereAction",
      "samplers": [
        {
          "input": 11,
          "interpolation": "LINEAR",
          "output": 12
        }
      ]
    }
  ],
  "asset": {
    "extras": {
      "author": "curiositysphere (https://sketchfab.com/curiositysphere)",
      "license": "CC-BY-4.0 (http://creativecommons.org/licenses/by/4.0/)",
      "source": "https://sketchfab.com/3d-models/cloud-sun-anim-1aac7ba1e8e84af5a8ea66aab9a9a66d",
      "title": "Cloud + Sun Anim"
    },
    "generator": "Sketchfab-7.81.0",
    "version": "2.0"
  },
  "bufferViews": [
    {
      "buffer": 0,
      "byteLength": 601344,
      "byteOffset": 0,
      "name": "floatBufferViews",
      "target": 34963
    },
    {
      "buffer": 0,
      "byteLength": 4472,
      "byteOffset": 601344,
      "byteStride": 8,
      "name": "floatBufferViews",
      "target": 34962
    },
    {
      "buffer": 0,
      "byteLength": 603288,
      "byteOffset": 605816,
      "byteStride": 12,
      "name": "floatBufferViews",
      "target": 34962
    },
    {
      "buffer": 0,
      "byteLength": 340,
      "byteOffset": 1209104,
      "name": "floatBufferViews"
    },
    {
      "buffer": 0,
      "byteLength": 1020,
      "byteOffset": 1209444,
      "byteStride": 12,
      "name": "floatBufferViews"
    }
  ],
  "buffers": [
    {
      "byteLength": 1210464,
      "uri": "scene.bin"
    }
  ],
  "extensionsRequired": [
    "KHR_materials_pbrSpecularGlossiness"
  ],
  "extensionsUsed": [
    "KHR_materials_pbrSpecularGlossiness"
  ],
  "materials": [
    {
      "doubleSided": false,
      "extensions": {
        "KHR_materials_pbrSpecularGlossiness": {
          "diffuseFactor": [
            1,
            1,
            1,
            1
          ],
          "glossinessFactor": 0,
          "specularFactor": [
            0.15318182742956912,
            0.15318182742956912,
            0.15318182742956912
          ]
        }
      },
      "name": "Cloud__0"
    },
    {
      "doubleSided": false,
      "emissiveFactor": [
        0.65902376674591556,
        0.16570237866881105,
        0
      ],
      "extensions": {
        "KHR_materials_pbrSpecularGlossiness": {
          "diffuseFactor": [
            1,
            0.55407600000000001,
            0,
            1
          ],
          "glossinessFactor": 0,
          "specularFactor": [
            0,
            0,
            0
          ]
        }
      },
      "name": "material"
    }
  ],
  "meshes": [
    {
      "name": "Cloud__0",
      "primitives": [
        {
          "attributes": {
            "NORMAL": 1,
            "POSITION": 0
          },
          "indices": 2,
          "material": 0,
          "mode": 4
        }
      ]
    },
    {
      "name": "Sphere_sun_0",
      "primitives": [
        {
          "attributes": {
            "NORMAL": 4,
            "POSITION": 3,
            "TEXCOORD_0": 5
          },
          "indices": 6,
          "material": 1,
          "mode": 4
        }
      ]
    }
  ],
  "nodes": [
    {
      "children": [
        1
      ],
      "name": "RootNode (gltf orientation matrix)",
      "rotation": [
        -0.70710678118654746,
        -0,
        -0,
        0.70710678118654757
      ]
    },
    {
      "children": [
        2
      ],
      "name": "RootNode (model correction matrix)"
    },
    {
      "children": [
        3
      ],
      "matrix": [
        1,
        0,
        0,
        0,
        0,
        0,
        1,
        0,
        0,
        -1,
        0,
        0,
        0,
        0,
        0,
        1
      ],
      "name": "9896ea5d39d24b17bddeeb2d2b15c82a.fbx"
    },
    {
      "children": [
        4
      ],
      "name": ""
    },
    {
      "children": [
        5,
        7
      ],
      "name": "RootNode"
    },
    {
      "children": [
        6
      ],
      "name": "Cloud",
      "rotation": [
        -0.55450719594955444,
        0.43877306580543518,
        0.43877315521240234,
        0.55450707674026489
      ],
      "scale": [
        100.00000762939453,
        100.00000762939453,
        100
      ],
      "translation": [
        -124.10353088378906,
        49.943458557128906,
        308.5230712890625
      ]
    },
    {
      "mesh": 0,
      "name": "Cloud__0"
    },
    {
      "children": [
        8
      ],
      "name": "Sphere",
      "rotation": [
        -0.7071068286895752,
        0,
        0,
        0.70710670948028564
      ],
      "scale": [
        -299.53567504882812,
        -299.53567504882812,
        -299.53567504882812
      ],
      "translation": [
        -900,
        350,
        300
      ]
    },
    {
      "mesh": 1,
      "name": "Sphere_sun_0"
    }
  ],
  "scene": 0,
  "scenes": [
    {
      "name": "OSG_Scene",
      "nodes": [
        0
      ]
    }
  ]
}

